<svg width="100" height="105" viewBox="0 0 100 105" fill="none" xmlns="http://www.w3.org/2000/svg">
<path fill-rule="evenodd" clip-rule="evenodd" d="M46.8902 1.08474C48.7026 -0.354757 51.266 -0.362282 53.0867 1.06655L91.3159 31.0666C91.3916 31.126 91.4656 31.1876 91.5378 31.2513C96.7196 35.8249 100 42.5325 100 50V80C100 93.8071 88.8071 105 75 105H25C11.1929 105 0 93.8071 0 80V50C0 43.6631 2.3642 37.8663 6.2513 33.4622C6.44601 33.2416 6.65981 33.0386 6.89022 32.8556L46.8902 1.08474ZM50.0187 11.3704L17.9295 36.8579L49.8403 63.3672L80.504 35.2935L50.0187 11.3704ZM87.7994 42.1725C89.1971 44.452 90 47.1309 90 50V80C90 88.2843 83.2843 95 75 95H25C16.7157 95 10 88.2843 10 80V50C10 47.9518 10.4086 46.0025 11.15 44.2264L46.805 73.846C48.7272 75.4429 51.5332 75.3753 53.3764 73.6879L87.7994 42.1725Z" fill="black"/>
</svg>
