<svg width="120" height="120" viewBox="0 0 120 120" fill="none" xmlns="http://www.w3.org/2000/svg">
<path fill-rule="evenodd" clip-rule="evenodd" d="M60 20C37.9086 20 20 37.9086 20 60C20 70.4956 24.0403 80.0494 30.66 87.1887C30.9099 86.3618 31.2423 85.5496 31.6759 84.7744C33.1459 82.1461 35.0002 79.7158 37.2004 77.5669C39.4085 75.4102 41.8997 73.6003 44.5867 72.1703C40.4944 68.253 37.9358 62.7783 37.9358 56.6667C37.9358 44.5901 47.926 35 60 35C72.074 35 82.0642 44.5901 82.0642 56.6667C82.0642 62.7783 79.5056 68.253 75.4133 72.1703C78.1003 73.6003 80.5915 75.4102 82.7996 77.5669C84.9998 79.7158 86.8541 82.1461 88.3241 84.7744C88.7577 85.5496 89.0901 86.3618 89.34 87.1887C95.9597 80.0494 100 70.4956 100 60C100 37.9086 82.0914 20 60 20ZM79.7056 94.8184C79.8997 93.8196 79.997 92.8822 79.9999 92.0515C80.0047 90.679 79.7533 89.9362 79.5965 89.6558C78.5937 87.8629 77.325 86.1983 75.8123 84.7208C71.6383 80.644 65.9526 78.3333 60 78.3333C54.0474 78.3333 48.3617 80.644 44.1877 84.7208C42.675 86.1982 41.4063 87.8629 40.4035 89.6558C40.2467 89.9362 39.9953 90.679 40.0001 92.0515C40.003 92.8822 40.1003 93.8196 40.2944 94.8184C46.1076 98.1164 52.8275 100 60 100C67.1725 100 73.8925 98.1164 79.7056 94.8184ZM60 68.3333C66.7746 68.3333 72.0642 62.9995 72.0642 56.6667C72.0642 50.3338 66.7746 45 60 45C53.2254 45 47.9358 50.3338 47.9358 56.6667C47.9358 62.9995 53.2254 68.3333 60 68.3333ZM10 60C10 32.3858 32.3858 10 60 10C87.6142 10 110 32.3858 110 60C110 77.7863 100.709 93.3991 86.7399 102.256C79.0036 107.161 69.8257 110 60 110C50.1743 110 40.9964 107.161 33.2601 102.256C19.2907 93.3992 10 77.7863 10 60Z" fill="black"/>
</svg>
