<svg width="120" height="120" viewBox="0 0 120 120" fill="none" xmlns="http://www.w3.org/2000/svg">
<path fill-rule="evenodd" clip-rule="evenodd" d="M89.7484 13.1793C91.701 11.2267 94.8668 11.2267 96.8194 13.1793C100.998 17.3579 104.313 22.3187 106.574 27.7784C108.836 33.238 110 39.0896 110 44.9991C110 50.9086 108.836 56.7602 106.574 62.2199C104.313 67.6795 100.998 72.6403 96.8195 76.8189C94.8668 78.7715 91.701 78.7715 89.7484 76.8189C87.7958 74.8663 87.7958 71.7005 89.7484 69.7479C92.9984 66.4978 95.5765 62.6394 97.3354 58.393C99.0944 54.1466 99.9996 49.5954 99.9996 44.9991C99.9996 40.4028 99.0944 35.8516 97.3354 31.6052C95.5765 27.3588 92.9984 23.5004 89.7484 20.2504C87.7958 18.2978 87.7958 15.1319 89.7484 13.1793ZM41.1104 29.9991C33.1329 29.9991 26.6659 36.4661 26.6659 44.4436C26.6659 52.4209 33.1332 58.888 41.1108 58.888C49.0881 58.888 55.5548 52.4211 55.5548 44.4436C55.5548 36.4661 49.0878 29.9991 41.1104 29.9991ZM57.3277 62.7342C62.3745 58.2562 65.5548 51.7213 65.5548 44.4436C65.5548 30.9433 54.6106 19.9991 41.1104 19.9991C27.6101 19.9991 16.6659 30.9433 16.6659 44.4436C16.6659 51.7214 19.8466 58.2563 24.8935 62.7343C21.4797 64.4501 18.3287 66.7123 15.5764 69.4647C14.3557 70.6853 13.2313 71.9846 12.2081 73.3506C9.91497 76.412 8.83514 79.8242 9.02528 83.2676C9.2125 86.6582 10.6071 89.6937 12.6009 92.1443C16.5244 96.9668 23.103 99.9991 29.9997 99.9991H52.2219C59.1186 99.9991 65.6972 96.9668 69.6206 92.1443C71.6144 89.6937 73.009 86.6582 73.1962 83.2676C73.3864 79.8242 72.3066 76.4121 70.0134 73.3506C68.9902 71.9846 67.8658 70.6853 66.6452 69.4647C63.8927 66.7122 60.7417 64.45 57.3277 62.7342ZM41.1108 68.888C34.1857 68.888 27.5442 71.639 22.6474 76.5357C21.7645 77.4187 20.9515 78.3581 20.2118 79.3456C19.194 80.7045 18.9613 81.8338 19.0101 82.7163C19.0617 83.6516 19.4573 84.7263 20.358 85.8333C22.2234 88.1262 25.8506 89.9991 29.9997 89.9991H52.2219C56.3709 89.9991 59.9981 88.1262 61.8636 85.8334C62.7642 84.7263 63.1598 83.6516 63.2115 82.7163C63.2602 81.8339 63.0275 80.7045 62.0097 79.3456C61.2701 78.3582 60.4571 77.4187 59.5741 76.5357C54.6773 71.639 48.0359 68.888 41.1108 68.888ZM75.6063 27.3214C77.5589 25.3688 80.7247 25.3688 82.6773 27.3214C84.9988 29.6429 86.8403 32.3989 88.0966 35.432C89.353 38.4652 89.9996 41.7161 89.9996 44.9991C89.9996 48.2822 89.353 51.5331 88.0966 54.5662C86.8403 57.5993 84.9988 60.3553 82.6773 62.6768C80.7247 64.6294 77.5589 64.6294 75.6063 62.6768C73.6536 60.7242 73.6536 57.5583 75.6063 55.6057C76.9991 54.2128 78.104 52.5593 78.8578 50.7394C79.6117 48.9195 79.9996 46.9689 79.9996 44.9991C79.9996 43.0293 79.6117 41.0787 78.8578 39.2589C78.104 37.439 76.9991 35.7854 75.6063 34.3925C73.6536 32.4399 73.6536 29.2741 75.6063 27.3214Z" fill="black"/>
</svg>
