<?xml version="1.0" standalone="no"?>
<!DOCTYPE svg PUBLIC "-//W3C//DTD SVG 20010904//EN"
 "http://www.w3.org/TR/2001/REC-SVG-20010904/DTD/svg10.dtd">
<svg version="1.0" xmlns="http://www.w3.org/2000/svg"
 width="512.000000pt" height="512.000000pt" viewBox="0 0 512.000000 512.000000"
 preserveAspectRatio="xMidYMid meet">
<metadata>
Created by potrace 1.14, written by Peter Selinger 2001-2017
</metadata>
<g transform="translate(0.000000,512.000000) scale(0.100000,-0.100000)"
fill="#000000" stroke="none">
<path d="M2379 5116 c-2 -2 -40 -6 -83 -10 -44 -4 -82 -8 -85 -10 -3 -2 -31
-7 -61 -11 -30 -3 -75 -11 -100 -17 -25 -5 -56 -12 -70 -14 -52 -10 -264 -74
-269 -81 -5 -7 -24 -12 -58 -15 -7 -1 -13 -5 -13 -10 0 -4 -8 -8 -18 -8 -10 0
-22 -3 -26 -7 -4 -5 -11 -8 -14 -8 -18 -2 -52 -17 -52 -24 0 -4 -6 -8 -12 -8
-20 0 -167 -75 -283 -144 -213 -127 -456 -331 -605 -508 -25 -30 -50 -59 -55
-65 -51 -55 -215 -295 -215 -314 0 -6 -4 -12 -9 -14 -11 -4 -117 -210 -113
-220 1 -5 -2 -8 -8 -8 -6 0 -9 -3 -8 -7 1 -5 -4 -20 -10 -35 -7 -16 -17 -40
-24 -55 -6 -16 -11 -31 -10 -35 1 -5 -3 -8 -10 -8 -6 0 -9 -3 -6 -6 3 -3 -5
-33 -18 -67 -13 -33 -24 -66 -24 -73 0 -7 -5 -25 -12 -41 -12 -30 -14 -36 -21
-73 -3 -14 -8 -32 -11 -40 -3 -8 -7 -26 -10 -40 -2 -14 -11 -59 -20 -100 -33
-164 -40 -246 -41 -470 0 -170 6 -289 19 -365 3 -16 8 -43 10 -60 12 -85 75
-346 85 -355 3 -3 6 -9 7 -15 2 -22 28 -95 33 -95 6 0 10 -18 13 -57 1 -7 4
-13 8 -13 3 0 12 -17 19 -37 14 -38 94 -205 121 -253 53 -93 138 -224 166
-257 13 -15 24 -32 24 -36 0 -5 6 -14 13 -21 6 -7 28 -33 47 -57 91 -112 316
-339 338 -339 6 0 12 -4 12 -9 0 -14 180 -147 285 -212 121 -75 262 -149 269
-142 3 4 6 1 6 -5 0 -7 3 -11 8 -10 4 1 27 -8 52 -19 54 -25 179 -74 200 -78
8 -2 16 -4 18 -5 1 -2 7 -4 12 -5 6 -1 11 -3 13 -5 1 -1 10 -3 20 -6 27 -6 41
-11 57 -17 19 -7 174 -44 215 -51 17 -2 44 -7 60 -10 122 -23 222 -30 420 -31
210 0 299 7 450 35 28 5 61 11 75 14 69 11 210 50 210 58 0 5 4 7 9 4 9 -6
239 72 277 93 11 6 61 30 111 55 292 140 552 337 781 592 30 32 63 70 75 83
12 13 21 25 20 27 -1 2 9 16 23 31 32 35 161 229 201 303 17 30 44 82 61 115
28 54 40 80 87 190 29 68 64 175 57 175 -4 0 -2 4 4 8 5 4 20 45 31 92 12 47
25 99 29 115 4 17 8 35 9 40 1 6 4 24 8 40 29 132 41 272 42 480 0 219 -10
337 -45 505 -6 30 -14 66 -16 80 -3 14 -12 49 -21 79 -8 29 -16 59 -17 65 -1
6 -4 16 -8 21 -3 6 -9 27 -13 48 -4 20 -10 37 -14 37 -4 0 -8 12 -9 27 -1 15
-8 30 -15 35 -6 4 -9 8 -4 8 4 0 -1 17 -12 38 -10 20 -19 40 -20 45 0 4 -8 24
-17 45 -10 20 -18 39 -18 42 -2 7 -80 159 -102 199 -32 57 -171 264 -193 288
-12 12 -21 25 -21 29 0 4 -11 17 -25 30 -14 13 -25 26 -25 30 0 13 -215 231
-285 289 -26 22 -53 45 -59 50 -28 26 -99 78 -186 136 -121 80 -124 82 -190
117 -30 16 -85 45 -122 65 -38 20 -68 34 -68 31 0 -2 -11 3 -24 12 -14 8 -26
15 -28 13 -2 -1 -19 5 -38 14 -19 8 -64 25 -100 37 -36 12 -74 26 -85 31 -26
11 -260 70 -300 75 -16 2 -41 6 -55 9 -14 3 -43 7 -65 10 -22 3 -56 8 -75 11
-39 6 -456 15 -461 10z"/>
</g>
</svg>
